<svg xmlns="http://www.w3.org/2000/svg" xmlns:xlink="http://www.w3.org/1999/xlink" viewBox="0 0 124 124" width="124" height="124" preserveAspectRatio="xMidYMid meet" style="width: 100%; height: 100%; transform: translate3d(0px, 0px, 0px); content-visibility: visible;"><defs><clipPath id="__lottie_element_2"><rect width="124" height="124" x="0" y="0"></rect></clipPath></defs><g clip-path="url(#__lottie_element_2)"><g transform="matrix(1,0,0,1,11.679999351501465,62.2599983215332)" opacity="1" style="display: block;"><path fill="rgb(243,243,243)" fill-opacity="1" d=" M15.569999694824219,0 C15.569999694824219,0 11.319999694824219,0 11.319999694824219,0 C5.070000171661377,0 0,5.050000190734863 0,11.319999694824219 C0,17.690000534057617 5.150000095367432,22.829999923706055 11.510000228881836,22.829999923706055 C11.510000228881836,22.829999923706055 15.90999984741211,22.829999923706055 15.90999984741211,22.829999923706055 C15.680000305175781,21.649999618530273 15.569999694824219,20.43000030517578 15.569999694824219,19.200000762939453 C15.569999694824219,19.200000762939453 15.569999694824219,0 15.569999694824219,0 C15.569999694824219,0 15.569999694824219,0 15.569999694824219,0z"></path></g><g transform="matrix(1,0,0,1,96.42000579833984,62.2599983215332)" opacity="1" style="display: block;"><path fill="rgb(243,243,243)" fill-opacity="1" d=" M4.590000152587891,0 C4.590000152587891,0 0.3400000035762787,0 0.3400000035762787,0 C0.3400000035762787,0 0.3400000035762787,19.200000762939453 0.3400000035762787,19.200000762939453 C0.3400000035762787,20.43000030517578 0.23000000417232513,21.649999618530273 0,22.829999923706055 C0,22.829999923706055 4.400000095367432,22.829999923706055 4.400000095367432,22.829999923706055 C10.760000228881836,22.829999923706055 15.90999984741211,17.68000030517578 15.90999984741211,11.3100004196167 C15.90999984741211,5.059999942779541 10.84000015258789,0 4.590000152587891,0 C4.590000152587891,0 4.590000152587891,0 4.590000152587891,0z"></path></g><g transform="matrix(1,0,0,1,42.79999923706055,102.74000549316406)" opacity="1" style="display: block;"><path fill="rgb(243,243,243)" fill-opacity="1" d=" M0,0 C0,0 0,17.6299991607666 0,17.6299991607666 C0,19.639999389648438 1.6200000047683716,21.260000228881836 3.630000114440918,21.260000228881836 C3.630000114440918,21.260000228881836 34.7599983215332,21.260000228881836 34.7599983215332,21.260000228881836 C36.77000045776367,21.260000228881836 38.400001525878906,19.639999389648438 38.400001525878906,17.6299991607666 C38.400001525878906,17.6299991607666 38.400001525878906,0 38.400001525878906,0 C32.209999084472656,3.6700000762939453 25.56999969482422,5.670000076293945 19.200000762939453,5.670000076293945 C12.829999923706055,5.670000076293945 6.190000057220459,3.6700000762939453 0,0 C0,0 0,0 0,0z"></path></g><g transform="matrix(1,0,0,1,34.5,34.5)" opacity="1" style="display: block;"><path fill="rgb(243,243,243)" fill-opacity="1" d=" M27.5,0 C18.239999771118164,0 9.0600004196167,3.059999942779541 1.659999966621399,8.609999656677246 C1.659999966621399,8.609999656677246 0,9.859999656677246 0,9.859999656677246 C0,9.859999656677246 0,18.520000457763672 0,18.520000457763672 C17.90999984741211,12.930000305175781 37.08000183105469,12.930000305175781 54.9900016784668,18.520000457763672 C54.9900016784668,18.520000457763672 54.9900016784668,9.859999656677246 54.9900016784668,9.859999656677246 C54.9900016784668,9.859999656677246 53.33000183105469,8.609999656677246 53.33000183105469,8.609999656677246 C45.93000030517578,3.059999942779541 36.7599983215332,0 27.5,0 C27.5,0 27.5,0 27.5,0z"></path></g><g transform="matrix(1,0,0,1,0,0)" opacity="1" style="display: block;"><path fill="rgb(243,243,243)" fill-opacity="1" d=" M96.76000213623047,60.220001220703125 C96.76000213623047,60.220001220703125 122.16999816894531,45.70000076293945 122.16999816894531,45.70000076293945 C123.26000213623047,45.08000183105469 123.95999908447266,43.93000030517578 124,42.66999816894531 C124.04000091552734,41.40999984741211 123.43000030517578,40.220001220703125 122.37999725341797,39.52000045776367 C122.37999725341797,39.52000045776367 64.0199966430664,0.6100000143051147 64.0199966430664,0.6100000143051147 C62.79999923706055,-0.20000000298023224 61.20000076293945,-0.20000000298023224 59.97999954223633,0.6100000143051147 C59.97999954223633,0.6100000143051147 1.690000057220459,39.47999954223633 1.690000057220459,39.47999954223633 C0.8799999952316284,40.02000045776367 0.2800000011920929,40.81999969482422 0.07999999821186066,41.77000045776367 C-0.25999999046325684,43.36000061035156 0.47999998927116394,44.93000030517578 1.8300000429153442,45.70000076293945 C1.8300000429153442,45.70000076293945 27.239999771118164,60.220001220703125 27.239999771118164,60.220001220703125 C27.239999771118164,60.220001220703125 27.239999771118164,42.540000915527344 27.239999771118164,42.540000915527344 C27.239999771118164,41.400001525878906 27.780000686645508,40.33000183105469 28.690000534057617,39.63999938964844 C28.690000534057617,39.63999938964844 31.809999465942383,37.29999923706055 31.809999465942383,37.29999923706055 C40.459999084472656,30.809999465942383 51.18000030517578,27.239999771118164 62,27.239999771118164 C72.81999969482422,27.239999771118164 83.55000305175781,30.809999465942383 92.19999694824219,37.29999923706055 C92.19999694824219,37.29999923706055 95.30999755859375,39.63999938964844 95.30999755859375,39.63999938964844 C96.22000122070312,40.33000183105469 96.76000213623047,41.400001525878906 96.76000213623047,42.540000915527344 C96.76000213623047,42.540000915527344 96.76000213623047,60.220001220703125 96.76000213623047,60.220001220703125 C96.76000213623047,60.220001220703125 96.76000213623047,60.220001220703125 96.76000213623047,60.220001220703125z"></path></g><g transform="matrix(1,0,0,1,34.5,56.090003967285156)" opacity="1" style="display: block;"><path fill="rgb(243,243,243)" fill-opacity="1" d=" M40.470001220703125,22.809999465942383 C41.81999969482422,21.440000534057617 44.02000045776367,21.360000610351562 45.470001220703125,22.649999618530273 C47.040000915527344,24.049999237060547 47.099998474121094,26.469999313354492 45.630001068115234,27.93000030517578 C40.790000915527344,32.77000045776367 34.349998474121094,35.439998626708984 27.5,35.439998626708984 C20.649999618530273,35.439998626708984 14.210000038146973,32.77000045776367 9.369999885559082,27.93000030517578 C7.900000095367432,26.459999084472656 7.949999809265137,24.040000915527344 9.520000457763672,22.649999618530273 C10.979999542236328,21.360000610351562 13.180000305175781,21.440000534057617 14.529999732971191,22.81999969482422 C18,26.270000457763672 22.600000381469727,28.170000076293945 27.5,28.170000076293945 C32.400001525878906,28.170000076293945 37,26.270000457763672 40.470001220703125,22.809999465942383 C40.470001220703125,22.809999465942383 40.470001220703125,22.809999465942383 40.470001220703125,22.809999465942383z M0,4.570000171661377 C0,4.570000171661377 0,25.360000610351562 0,25.360000610351562 C0,28.510000228881836 1.2300000190734863,31.479999542236328 3.4600000381469727,33.709999084472656 C3.4600000381469727,33.709999084472656 3.4600000381469727,33.709999084472656 3.4600000381469727,33.709999084472656 C3.4600000381469727,33.709999084472656 3.4600000381469727,33.709999084472656 3.4600000381469727,33.709999084472656 C10.670000076293945,40.91999816894531 19.43000030517578,45.04999923706055 27.5,45.04999923706055 C35.56999969482422,45.04999923706055 44.31999969482422,40.91999816894531 51.529998779296875,33.709999084472656 C51.540000915527344,33.70000076293945 51.54999923706055,33.70000076293945 51.560001373291016,33.689998626708984 C53.779998779296875,31.459999084472656 54.9900016784668,28.5 54.9900016784668,25.360000610351562 C54.9900016784668,25.360000610351562 54.9900016784668,4.570000171661377 54.9900016784668,4.570000171661377 C37.15999984741211,-1.5199999809265137 17.829999923706055,-1.5199999809265137 0,4.570000171661377 C0,4.570000171661377 0,4.570000171661377 0,4.570000171661377z"></path></g><g transform="matrix(1,0,0,1,116.74000549316406,53.02000045776367)" opacity="1" style="display: block;"><path fill="rgb(243,243,243)" fill-opacity="1" d=" M0,4.150000095367432 C0,4.150000095367432 0,16.25 0,16.25 C0,18.260000228881836 1.6200000047683716,19.8799991607666 3.630000114440918,19.8799991607666 C5.639999866485596,19.8799991607666 7.269999980926514,18.260000228881836 7.269999980926514,16.25 C7.269999980926514,16.25 7.269999980926514,0 7.269999980926514,0 C7.269999980926514,0 0,4.150000095367432 0,4.150000095367432 C0,4.150000095367432 0,4.150000095367432 0,4.150000095367432z"></path></g></g></svg>