<svg xmlns="http://www.w3.org/2000/svg" xmlns:xlink="http://www.w3.org/1999/xlink" viewBox="0 0 124 124" width="124" height="124" preserveAspectRatio="xMidYMid meet" style="width: 100%; height: 100%; transform: translate3d(0px, 0px, 0px); content-visibility: visible;"><defs><clipPath id="__lottie_element_46"><rect width="124" height="124" x="0" y="0"></rect></clipPath><clipPath id="__lottie_element_48"><path d="M0,0 L124,0 L124,124 L0,124z"></path></clipPath><clipPath id="__lottie_element_49"><path fill="#ffffff" clip-rule="nonzero" d=" M45,0 C45,0 45,15 45,15 C45,15 0,15 0,15 C0,15 0,0 0,0 C0,0 45,0 45,0" fill-opacity="1"></path></clipPath><clipPath id="__lottie_element_55"><path d="M0,0 L124,0 L124,124 L0,124z"></path></clipPath><clipPath id="__lottie_element_62"><path d="M0,0 L124,0 L124,124 L0,124z"></path></clipPath><clipPath id="__lottie_element_63"><path fill="#ffffff" clip-rule="nonzero" d=" M18,0 C18,0 18,15 18,15 C18,15 0,15 0,15 C0,15 0,0 0,0 C0,0 18,0 18,0" fill-opacity="1"></path></clipPath><clipPath id="__lottie_element_66"><path d="M0,0 L124,0 L124,124 L0,124z"></path></clipPath><clipPath id="__lottie_element_70"><path d="M0,0 L124,0 L124,124 L0,124z"></path></clipPath><clipPath id="__lottie_element_77"><path d="M0,0 L124,0 L124,124 L0,124z"></path></clipPath><clipPath id="__lottie_element_84"><path d="M0,0 L124,0 L124,124 L0,124z"></path></clipPath><clipPath id="__lottie_element_91"><path d="M0,0 L124,0 L124,124 L0,124z"></path></clipPath><clipPath id="__lottie_element_98"><path d="M0,0 L124,0 L124,124 L0,124z"></path></clipPath></defs><g clip-path="url(#__lottie_element_46)"><g clip-path="url(#__lottie_element_55)" transform="matrix(1,0,0,1,0,19)" opacity="1" style="display: block;"><g transform="matrix(1,0,0,1,0,0)" opacity="1" style="display: block;"></g><g transform="matrix(1,0,0,1,0,0)" opacity="1" style="display: block;"><path fill="rgb(88,120,179)" fill-opacity="1" d=" M124,0 C124,0 124,80 124,80 C124,80 0,80 0,80 C0,80 0,0 0,0 C0,0 124,0 124,0z"></path></g><g transform="matrix(1,0,0,1,32,86)" opacity="1" style="display: block;"><path fill="rgb(243,243,243)" fill-opacity="1" d=" M60,0 C60,0 60,4 60,4 C60,4 0,4 0,4 C0,4 0,0 0,0 C0,0 60,0 60,0z"></path></g><g clip-path="url(#__lottie_element_62)" transform="matrix(1,0,0,1,53,20)" opacity="1" style="display: block;"><g clip-path="url(#__lottie_element_63)"><g transform="matrix(1,0,0,1,0,0)" opacity="1" style="display: block;"><path fill="rgb(255,255,255)" fill-opacity="0" d=" M18,0 C18,0 18,15 18,15 C18,15 0,15 0,15 C0,15 0,0 0,0 C0,0 18,0 18,0z"></path></g><g clip-path="url(#__lottie_element_66)" transform="matrix(1,0,0,1,1.2699999809265137,2)" opacity="1" style="display: block;"><g clip-path="url(#__lottie_element_98)" transform="matrix(1,0,0,1,0,0)" opacity="1" style="display: block;"><g transform="matrix(1,0,0,1,0,0)" opacity="1" style="display: block;"><path fill="rgb(255,255,255)" fill-opacity="0.42" d=" M1.5399999618530273,9.5600004196167 C-0.5099999904632568,6.829999923706055 -0.5099999904632568,3.009999990463257 1.5399999618530273,0.2800000011920929 C1.7699999809265137,-0.029999999329447746 2.2100000381469727,-0.09000000357627869 2.5199999809265137,0.14000000059604645 C2.8299999237060547,0.3700000047683716 2.890000104904175,0.8199999928474426 2.6600000858306885,1.1299999952316284 C0.9800000190734863,3.369999885559082 0.9800000190734863,6.489999771118164 2.6600000858306885,8.720000267028809 C2.890000104904175,9.029999732971191 2.8299999237060547,9.470000267028809 2.5199999809265137,9.699999809265137 C2.2100000381469727,9.930000305175781 1.7699999809265137,9.869999885559082 1.5399999618530273,9.5600004196167 C1.5399999618530273,9.5600004196167 1.5399999618530273,9.5600004196167 1.5399999618530273,9.5600004196167z"></path></g></g><g clip-path="url(#__lottie_element_91)" transform="matrix(1,0,0,1,12.65000057220459,0)" opacity="1" style="display: block;"><g transform="matrix(1,0,0,1,0,0)" opacity="1" style="display: block;"><path fill="rgb(255,255,255)" fill-opacity="0.42" d=" M0.2800000011920929,9.699999809265137 C-0.029999999329447746,9.470000267028809 -0.09000000357627869,9.029999732971191 0.14000000059604645,8.720000267028809 C1.8200000524520874,6.480000019073486 1.8200000524520874,3.369999885559082 0.14000000059604645,1.1299999952316284 C-0.09000000357627869,0.8199999928474426 -0.029999999329447746,0.3700000047683716 0.2800000011920929,0.14000000059604645 C0.5899999737739563,-0.09000000357627869 1.0399999618530273,-0.029999999329447746 1.2699999809265137,0.2800000011920929 C3.319999933242798,3.009999990463257 3.319999933242798,6.829999923706055 1.2699999809265137,9.5600004196167 C1.0399999618530273,9.869999885559082 0.5899999737739563,9.930000305175781 0.2800000011920929,9.699999809265137 C0.2800000011920929,9.699999809265137 0.2800000011920929,9.699999809265137 0.2800000011920929,9.699999809265137z"></path></g></g><g clip-path="url(#__lottie_element_84)" transform="matrix(1,0,0,1,2.799999952316284,1.4000000953674316)" opacity="1" style="display: block;"><g transform="matrix(1,0,0,1,0,0)" opacity="1" style="display: block;"><path fill="rgb(255,255,255)" fill-opacity="0.42" d=" M1.2599999904632568,6.800000190734863 C-0.41999998688697815,4.929999828338623 -0.41999998688697815,2.0999999046325684 1.2599999904632568,0.23000000417232513 C1.5199999809265137,-0.05999999865889549 1.9600000381469727,-0.07999999821186066 2.25,0.18000000715255737 C2.5399999618530273,0.4399999976158142 2.559999942779541,0.8799999952316284 2.299999952316284,1.1699999570846558 C1.100000023841858,2.509999990463257 1.100000023841858,4.519999980926514 2.299999952316284,5.860000133514404 C2.559999942779541,6.150000095367432 2.5399999618530273,6.590000152587891 2.25,6.849999904632568 C1.9600000381469727,7.110000133514404 1.5199999809265137,7.090000152587891 1.2599999904632568,6.800000190734863 C1.2599999904632568,6.800000190734863 1.2599999904632568,6.800000190734863 1.2599999904632568,6.800000190734863z"></path></g></g><g clip-path="url(#__lottie_element_77)" transform="matrix(1,0,0,1,10.170000076293945,1.4000000953674316)" opacity="1" style="display: block;"><g transform="matrix(1,0,0,1,0,0)" opacity="1" style="display: block;"><path fill="rgb(255,255,255)" fill-opacity="0.42" d=" M0.23000000417232513,6.849999904632568 C-0.05999999865889549,6.590000152587891 -0.07999999821186066,6.150000095367432 0.18000000715255737,5.860000133514404 C1.3799999952316284,4.519999980926514 1.3799999952316284,2.509999990463257 0.18000000715255737,1.1699999570846558 C-0.07999999821186066,0.8799999952316284 -0.05999999865889549,0.4399999976158142 0.23000000417232513,0.18000000715255737 C0.5199999809265137,-0.07999999821186066 0.9700000286102295,-0.05999999865889549 1.2300000190734863,0.23000000417232513 C2.9100000858306885,2.0999999046325684 2.9100000858306885,4.929999828338623 1.2300000190734863,6.800000190734863 C0.9700000286102295,7.090000152587891 0.5199999809265137,7.110000133514404 0.23000000417232513,6.849999904632568 C0.23000000417232513,6.849999904632568 0.23000000417232513,6.849999904632568 0.23000000417232513,6.849999904632568z"></path></g></g><g clip-path="url(#__lottie_element_70)" transform="matrix(1,0,0,1,5.619999885559082,2.81000018119812)" opacity="1" style="display: block;"><g transform="matrix(1,0,0,1,0,0)" opacity="1" style="display: block;"><path fill="rgb(255,255,255)" fill-opacity="0.42" d=" M2.109999895095825,4.21999979019165 C0.949999988079071,4.21999979019165 0,3.2699999809265137 0,2.109999895095825 C0,0.949999988079071 0.949999988079071,0 2.109999895095825,0 C3.2699999809265137,0 4.21999979019165,0.949999988079071 4.21999979019165,2.109999895095825 C4.21999979019165,3.2699999809265137 3.2699999809265137,4.21999979019165 2.109999895095825,4.21999979019165 C2.109999895095825,4.21999979019165 2.109999895095825,4.21999979019165 2.109999895095825,4.21999979019165z"></path></g></g></g></g></g><g transform="matrix(1,0,0,1,41,35)" opacity="1" style="display: block;"><path fill="rgb(255,255,255)" fill-opacity="0.42" d=" M35.77000045776367,9.779999732971191 C36.45000076293945,9.779999732971191 37,10.319999694824219 37,11 C37,11.680000305175781 36.45000076293945,12.220000267028809 35.77000045776367,12.220000267028809 C35.77000045776367,12.220000267028809 32.06999969482422,12.220000267028809 32.06999969482422,12.220000267028809 C32.06999969482422,12.220000267028809 32.06999969482422,14.670000076293945 32.06999969482422,14.670000076293945 C32.06999969482422,14.670000076293945 35.77000045776367,14.670000076293945 35.77000045776367,14.670000076293945 C36.45000076293945,14.670000076293945 37,15.210000038146973 37,15.890000343322754 C37,16.56999969482422 36.45000076293945,17.110000610351562 35.77000045776367,17.110000610351562 C35.77000045776367,17.110000610351562 30.84000015258789,17.110000610351562 30.84000015258789,17.110000610351562 C30.15999984741211,17.110000610351562 29.610000610351562,16.56999969482422 29.610000610351562,15.890000343322754 C29.610000610351562,15.890000343322754 29.610000610351562,6.110000133514404 29.610000610351562,6.110000133514404 C29.610000610351562,5.429999828338623 30.15999984741211,4.889999866485596 30.84000015258789,4.889999866485596 C30.84000015258789,4.889999866485596 35.77000045776367,4.889999866485596 35.77000045776367,4.889999866485596 C36.45000076293945,4.889999866485596 37,5.429999828338623 37,6.110000133514404 C37,6.789999961853027 36.45000076293945,7.329999923706055 35.77000045776367,7.329999923706055 C35.77000045776367,7.329999923706055 32.06999969482422,7.329999923706055 32.06999969482422,7.329999923706055 C32.06999969482422,7.329999923706055 32.06999969482422,9.779999732971191 32.06999969482422,9.779999732971191 C32.06999969482422,9.779999732971191 35.77000045776367,9.779999732971191 35.77000045776367,9.779999732971191 C35.77000045776367,9.779999732971191 35.77000045776367,9.779999732971191 35.77000045776367,9.779999732971191z M27.1200008392334,6.409999847412109 C27.1200008392334,6.409999847412109 24.649999618530273,16.18000030517578 24.649999618530273,16.18000030517578 C24.510000228881836,16.719999313354492 24.020000457763672,17.110000610351562 23.459999084472656,17.110000610351562 C22.899999618530273,17.110000610351562 22.40999984741211,16.719999313354492 22.270000457763672,16.18000030517578 C22.270000457763672,16.18000030517578 19.809999465942383,6.409999847412109 19.809999465942383,6.409999847412109 C19.639999389648438,5.760000228881836 20.040000915527344,5.090000152587891 20.700000762939453,4.929999828338623 C21.360000610351562,4.760000228881836 22.030000686645508,5.159999847412109 22.190000534057617,5.820000171661377 C22.190000534057617,5.820000171661377 23.459999084472656,10.850000381469727 23.459999084472656,10.850000381469727 C23.459999084472656,10.850000381469727 24.729999542236328,5.820000171661377 24.729999542236328,5.820000171661377 C24.889999389648438,5.159999847412109 25.559999465942383,4.760000228881836 26.219999313354492,4.929999828338623 C26.8799991607666,5.090000152587891 27.290000915527344,5.760000228881836 27.1200008392334,6.409999847412109 C27.1200008392334,6.409999847412109 27.1200008392334,6.409999847412109 27.1200008392334,6.409999847412109z M17.309999465942383,15.890000343322754 C17.309999465942383,16.56999969482422 16.760000228881836,17.110000610351562 16.079999923706055,17.110000610351562 C15.399999618530273,17.110000610351562 14.850000381469727,16.56999969482422 14.850000381469727,15.890000343322754 C14.850000381469727,15.890000343322754 14.850000381469727,6.110000133514404 14.850000381469727,6.110000133514404 C14.850000381469727,5.429999828338623 15.399999618530273,4.889999866485596 16.079999923706055,4.889999866485596 C16.760000228881836,4.889999866485596 17.309999465942383,5.429999828338623 17.309999465942383,6.110000133514404 C17.309999465942383,6.110000133514404 17.309999465942383,15.890000343322754 17.309999465942383,15.890000343322754 C17.309999465942383,15.890000343322754 17.309999465942383,15.890000343322754 17.309999465942383,15.890000343322754z M11.15999984741211,17.110000610351562 C11.15999984741211,17.110000610351562 6.230000019073486,17.110000610351562 6.230000019073486,17.110000610351562 C5.550000190734863,17.110000610351562 5,16.56999969482422 5,15.890000343322754 C5,15.890000343322754 5,6.110000133514404 5,6.110000133514404 C5,5.429999828338623 5.550000190734863,4.889999866485596 6.230000019073486,4.889999866485596 C6.909999847412109,4.889999866485596 7.460000038146973,5.429999828338623 7.460000038146973,6.110000133514404 C7.460000038146973,6.110000133514404 7.460000038146973,14.670000076293945 7.460000038146973,14.670000076293945 C7.460000038146973,14.670000076293945 11.15999984741211,14.670000076293945 11.15999984741211,14.670000076293945 C11.84000015258789,14.670000076293945 12.390000343322754,15.210000038146973 12.390000343322754,15.890000343322754 C12.390000343322754,16.56999969482422 11.84000015258789,17.110000610351562 11.15999984741211,17.110000610351562 C11.15999984741211,17.110000610351562 11.15999984741211,17.110000610351562 11.15999984741211,17.110000610351562z M38.310001373291016,0 C38.310001373291016,0 3.690000057220459,0 3.690000057220459,0 C1.649999976158142,0 0,1.649999976158142 0,3.6700000762939453 C0,3.6700000762939453 0,18.329999923706055 0,18.329999923706055 C0,20.350000381469727 1.649999976158142,22 3.690000057220459,22 C3.690000057220459,22 38.310001373291016,22 38.310001373291016,22 C40.349998474121094,22 42,20.350000381469727 42,18.329999923706055 C42,18.329999923706055 42,3.6700000762939453 42,3.6700000762939453 C42,1.649999976158142 40.349998474121094,0 38.310001373291016,0 C38.310001373291016,0 38.310001373291016,0 38.310001373291016,0z"></path></g></g><g clip-path="url(#__lottie_element_48)" transform="matrix(1,0,0,1,4,23)" opacity="1" style="display: block;"><g clip-path="url(#__lottie_element_49)"><g transform="matrix(1,0,0,1,0,0)" opacity="1" style="display: block;"><path fill="rgb(255,255,255)" fill-opacity="0" d=" M45,0 C45,0 45,15 45,15 C45,15 0,15 0,15 C0,15 0,0 0,0 C0,0 45,0 45,0z"></path></g></g></g></g></svg>