<svg xmlns="http://www.w3.org/2000/svg" xmlns:xlink="http://www.w3.org/1999/xlink" viewBox="0 0 124 124" width="124" height="124" preserveAspectRatio="xMidYMid meet" style="width: 100%; height: 100%; transform: translate3d(0px, 0px, 0px); content-visibility: visible;"><defs><clipPath id="__lottie_element_140"><rect width="124" height="124" x="0" y="0"></rect></clipPath><clipPath id="__lottie_element_142"><path d="M0,0 L124,0 L124,124 L0,124z"></path></clipPath><clipPath id="__lottie_element_146"><path d="M0,0 L124,0 L124,124 L0,124z"></path></clipPath><clipPath id="__lottie_element_159"><path d="M0,0 L124,0 L124,124 L0,124z"></path></clipPath><clipPath id="__lottie_element_175"><path d="M0,0 L124,0 L124,124 L0,124z"></path></clipPath><clipPath id="__lottie_element_179"><path d="M0,0 L124,0 L124,124 L0,124z"></path></clipPath><clipPath id="__lottie_element_192"><path d="M0,0 L124,0 L124,124 L0,124z"></path></clipPath><clipPath id="__lottie_element_205"><path d="M0,0 L124,0 L124,124 L0,124z"></path></clipPath></defs><g clip-path="url(#__lottie_element_140)"><g clip-path="url(#__lottie_element_175)" transform="matrix(1,0,0,1,0,0)" opacity="1" style="display: block;"><g transform="matrix(1,0,0,1,0,0)" opacity="1" style="display: block;"></g><g clip-path="url(#__lottie_element_205)" transform="matrix(1,0,0,1,16.459999084472656,4.75)" opacity="1" style="display: block;"><g transform="matrix(1,0,0,1,0,0)" opacity="1" style="display: block;"></g><g transform="matrix(1,0,0,1,2.3400001525878906,0)" opacity="1" style="display: block;"><path fill="rgb(243,243,243)" fill-opacity="1" d=" M22.34000015258789,11.260000228881836 C22.34000015258789,17.479999542236328 17.34000015258789,22.520000457763672 11.170000076293945,22.520000457763672 C5,22.520000457763672 0,17.479999542236328 0,11.260000228881836 C0,5.039999961853027 5,0 11.170000076293945,0 C17.34000015258789,0 22.34000015258789,5.039999961853027 22.34000015258789,11.260000228881836 C22.34000015258789,11.260000228881836 22.34000015258789,11.260000228881836 22.34000015258789,11.260000228881836z"></path></g><g transform="matrix(1,0,0,1,0,22.529998779296875)" opacity="1" style="display: block;"><path fill="rgb(243,243,243)" fill-opacity="1" d=" M0,4.28000020980835 C0,1.909999966621399 1.909999966621399,0 4.28000020980835,0 C4.28000020980835,0 22.739999771118164,0 22.739999771118164,0 C25.110000610351562,0 27.030000686645508,1.909999966621399 27.030000686645508,4.28000020980835 C27.030000686645508,4.28000020980835 27.030000686645508,31.280000686645508 27.030000686645508,31.280000686645508 C27.030000686645508,31.280000686645508 0,31.280000686645508 0,31.280000686645508 C0,31.280000686645508 0,4.28000020980835 0,4.28000020980835 C0,4.28000020980835 0,4.28000020980835 0,4.28000020980835z"></path></g></g><g clip-path="url(#__lottie_element_192)" transform="matrix(1,0,0,1,48.48999786376953,4.75)" opacity="1" style="display: block;"><g transform="matrix(1,0,0,1,0,0)" opacity="1" style="display: block;"></g><g transform="matrix(1,0,0,1,2.3400001525878906,0)" opacity="1" style="display: block;"><path fill="rgb(243,243,243)" fill-opacity="1" d=" M22.34000015258789,11.260000228881836 C22.34000015258789,17.479999542236328 17.34000015258789,22.520000457763672 11.170000076293945,22.520000457763672 C5,22.520000457763672 0,17.479999542236328 0,11.260000228881836 C0,5.039999961853027 5,0 11.170000076293945,0 C17.34000015258789,0 22.34000015258789,5.039999961853027 22.34000015258789,11.260000228881836 C22.34000015258789,11.260000228881836 22.34000015258789,11.260000228881836 22.34000015258789,11.260000228881836z"></path></g><g transform="matrix(1,0,0,1,0,22.529998779296875)" opacity="1" style="display: block;"><path fill="rgb(243,243,243)" fill-opacity="1" d=" M0,4.28000020980835 C0,1.909999966621399 1.909999966621399,0 4.28000020980835,0 C4.28000020980835,0 22.739999771118164,0 22.739999771118164,0 C25.110000610351562,0 27.030000686645508,1.909999966621399 27.030000686645508,4.28000020980835 C27.030000686645508,4.28000020980835 27.030000686645508,31.280000686645508 27.030000686645508,31.280000686645508 C27.030000686645508,31.280000686645508 0,31.280000686645508 0,31.280000686645508 C0,31.280000686645508 0,4.28000020980835 0,4.28000020980835 C0,4.28000020980835 0,4.28000020980835 0,4.28000020980835z"></path></g></g><g clip-path="url(#__lottie_element_179)" transform="matrix(1,0,0,1,80.5199966430664,4.75)" opacity="1" style="display: block;"><g transform="matrix(1,0,0,1,0,0)" opacity="1" style="display: block;"></g><g transform="matrix(1,0,0,1,2.3400001525878906,0)" opacity="1" style="display: block;"><path fill="rgb(243,243,243)" fill-opacity="1" d=" M22.34000015258789,11.260000228881836 C22.34000015258789,17.479999542236328 17.34000015258789,22.520000457763672 11.170000076293945,22.520000457763672 C5,22.520000457763672 0,17.479999542236328 0,11.260000228881836 C0,5.039999961853027 5,0 11.170000076293945,0 C17.34000015258789,0 22.34000015258789,5.039999961853027 22.34000015258789,11.260000228881836 C22.34000015258789,11.260000228881836 22.34000015258789,11.260000228881836 22.34000015258789,11.260000228881836z"></path></g><g transform="matrix(1,0,0,1,0,22.529998779296875)" opacity="1" style="display: block;"><path fill="rgb(243,243,243)" fill-opacity="1" d=" M0,4.28000020980835 C0,1.909999966621399 1.909999966621399,0 4.28000020980835,0 C4.28000020980835,0 22.739999771118164,0 22.739999771118164,0 C25.110000610351562,0 27.030000686645508,1.909999966621399 27.030000686645508,4.28000020980835 C27.030000686645508,4.28000020980835 27.030000686645508,31.280000686645508 27.030000686645508,31.280000686645508 C27.030000686645508,31.280000686645508 0,31.280000686645508 0,31.280000686645508 C0,31.280000686645508 0,4.28000020980835 0,4.28000020980835 C0,4.28000020980835 0,4.28000020980835 0,4.28000020980835z"></path></g></g></g><g clip-path="url(#__lottie_element_142)" transform="matrix(1,0,0,1,32.470001220703125,64)" opacity="1" style="display: block;"><g transform="matrix(1,0,0,1,0,0)" opacity="1" style="display: block;"></g><g clip-path="url(#__lottie_element_159)" transform="matrix(1,0,0,1,0,0)" opacity="1" style="display: block;"><g transform="matrix(1,0,0,1,0,0)" opacity="1" style="display: block;"></g><g transform="matrix(1,0,0,1,2.3400001525878906,0)" opacity="1" style="display: block;"><path fill="rgb(243,243,243)" fill-opacity="1" d=" M22.34000015258789,11.260000228881836 C22.34000015258789,17.479999542236328 17.34000015258789,22.520000457763672 11.170000076293945,22.520000457763672 C5,22.520000457763672 0,17.479999542236328 0,11.260000228881836 C0,5.039999961853027 5,0 11.170000076293945,0 C17.34000015258789,0 22.34000015258789,5.039999961853027 22.34000015258789,11.260000228881836 C22.34000015258789,11.260000228881836 22.34000015258789,11.260000228881836 22.34000015258789,11.260000228881836z"></path></g><g transform="matrix(1,0,0,1,0,22.529998779296875)" opacity="1" style="display: block;"><path fill="rgb(243,243,243)" fill-opacity="1" d=" M0,4.28000020980835 C0,1.909999966621399 1.909999966621399,0 4.28000020980835,0 C4.28000020980835,0 22.739999771118164,0 22.739999771118164,0 C25.110000610351562,0 27.030000686645508,1.909999966621399 27.030000686645508,4.28000020980835 C27.030000686645508,4.28000020980835 27.030000686645508,31.280000686645508 27.030000686645508,31.280000686645508 C27.030000686645508,31.280000686645508 0,31.280000686645508 0,31.280000686645508 C0,31.280000686645508 0,4.28000020980835 0,4.28000020980835 C0,4.28000020980835 0,4.28000020980835 0,4.28000020980835z"></path></g></g><g clip-path="url(#__lottie_element_146)" transform="matrix(1,0,0,1,32.029998779296875,0)" opacity="1" style="display: block;"><g transform="matrix(1,0,0,1,0,0)" opacity="1" style="display: block;"></g><g transform="matrix(1,0,0,1,2.3400001525878906,0)" opacity="1" style="display: block;"><path fill="rgb(88,120,179)" fill-opacity="1" d=" M22.34000015258789,11.260000228881836 C22.34000015258789,17.479999542236328 17.34000015258789,22.520000457763672 11.170000076293945,22.520000457763672 C5,22.520000457763672 0,17.479999542236328 0,11.260000228881836 C0,5.039999961853027 5,0 11.170000076293945,0 C17.34000015258789,0 22.34000015258789,5.039999961853027 22.34000015258789,11.260000228881836 C22.34000015258789,11.260000228881836 22.34000015258789,11.260000228881836 22.34000015258789,11.260000228881836z"></path></g><g transform="matrix(1,0,0,1,0,22.529998779296875)" opacity="1" style="display: block;"><path fill="rgb(88,120,179)" fill-opacity="1" d=" M0,4.28000020980835 C0,1.909999966621399 1.909999966621399,0 4.28000020980835,0 C4.28000020980835,0 22.739999771118164,0 22.739999771118164,0 C25.110000610351562,0 27.030000686645508,1.909999966621399 27.030000686645508,4.28000020980835 C27.030000686645508,4.28000020980835 27.030000686645508,31.280000686645508 27.030000686645508,31.280000686645508 C27.030000686645508,31.280000686645508 0,31.280000686645508 0,31.280000686645508 C0,31.280000686645508 0,4.28000020980835 0,4.28000020980835 C0,4.28000020980835 0,4.28000020980835 0,4.28000020980835z"></path></g></g></g></g></svg>