<svg xmlns="http://www.w3.org/2000/svg" xmlns:xlink="http://www.w3.org/1999/xlink" viewBox="0 0 124 124" width="124" height="124" preserveAspectRatio="xMidYMid meet" style="width: 100%; height: 100%; transform: translate3d(0px, 0px, 0px); content-visibility: visible;"><defs><clipPath id="__lottie_element_25"><rect width="124" height="124" x="0" y="0"></rect></clipPath><clipPath id="__lottie_element_27"><path d="M0,0 L124,0 L124,124 L0,124z"></path></clipPath></defs><g clip-path="url(#__lottie_element_25)"><g clip-path="url(#__lottie_element_27)" transform="matrix(1,0,0,1,0,0)" opacity="1" style="display: block;"><g transform="matrix(1,0,0,1,28.93999481201172,3.0800018310546875)" opacity="1" style="display: block;"><path fill="rgb(243,243,243)" fill-opacity="0" d=" M21.270000457763672,64.55999755859375 C21.270000457763672,64.55999755859375 44.77000045776367,64.55999755859375 44.77000045776367,64.55999755859375 C45.970001220703125,57.7400016784668 49.5099983215332,51.880001068115234 54.5099983215332,47.61000061035156 C54.529998779296875,47.61000061035156 54.560001373291016,47.61000061035156 54.59000015258789,47.61000061035156 C58.7599983215332,47.470001220703125 64.18000030517578,46.33000183105469 69.33000183105469,42.41999816894531 C69.95999908447266,41.939998626708984 70.58000183105469,41.43000030517578 71.16999816894531,40.900001525878906 C78.55000305175781,34.18000030517578 82.5999984741211,23.010000228881836 83.1500015258789,7.659999847412109 C83.27999877929688,3.5899999141693115 80.19999694824219,0.17000000178813934 76.25,0.009999999776482582 C71.93000030517578,-0.2199999988079071 68.94999694824219,3.0299999713897705 68.80000305175781,7.110000133514404 C68.36000061035156,18.709999084472656 65.66000366210938,26.770000457763672 60.93000030517578,30.450000762939453 C59.90999984741211,31.260000228881836 58.810001373291016,31.809999465942383 57.7599983215332,32.18000030517578 C57.72999954223633,32.189998626708984 57.68000030517578,32.20000076293945 57.650001525878906,32.209999084472656 C54.540000915527344,29.15999984741211 50.2400016784668,27.68000030517578 47.33000183105469,27.68000030517578 C47.33000183105469,27.68000030517578 29.56999969482422,27.68000030517578 29.56999969482422,27.68000030517578 C29.56999969482422,27.68000030517578 11.8100004196167,27.68000030517578 11.8100004196167,27.68000030517578 C5.300000190734863,27.68000030517578 0.11999999731779099,36.18000030517578 0,43.54999923706055 C11.8100004196167,43.54999923706055 19.270000457763672,53.4900016784668 21.270000457763672,64.55999755859375 C21.270000457763672,64.55999755859375 21.270000457763672,64.55999755859375 21.270000457763672,64.55999755859375z"></path></g><g transform="matrix(1,0,0,1,47.970001220703125,0)" opacity="1" style="display: block;"><path fill="rgb(243,243,243)" fill-opacity="0" d=" M14.529999732971191,28.690000534057617 C22.549999237060547,28.690000534057617 29.049999237060547,22.270000457763672 29.049999237060547,14.350000381469727 C29.049999237060547,6.429999828338623 22.549999237060547,0 14.529999732971191,0 C6.510000228881836,0 0,6.429999828338623 0,14.350000381469727 C0,22.270000457763672 6.510000228881836,28.690000534057617 14.529999732971191,28.690000534057617 C14.529999732971191,28.690000534057617 14.529999732971191,28.690000534057617 14.529999732971191,28.690000534057617z"></path></g><g transform="matrix(1,0,0,1,15.920000076293945,60.459999084472656)" opacity="1" style="display: block;"><path fill="rgb(243,243,243)" fill-opacity="0" d=" M38.06999969482422,33 C38.06999969482422,25.579999923706055 35,22.440000534057617 30.739999771118164,22.440000534057617 C30.739999771118164,22.440000534057617 30.510000228881836,22.440000534057617 30.510000228881836,22.440000534057617 C30.510000228881836,22.440000534057617 20.8700008392334,22.440000534057617 20.8700008392334,22.440000534057617 C26.200000762939453,21.6299991607666 30.280000686645508,16.950000762939453 30.280000686645508,11.279999732971191 C30.280000686645508,5.050000190734863 25.34000015258789,0 19.229999542236328,0 C13.130000114440918,0 8.1899995803833,5.050000190734863 8.1899995803833,11.279999732971191 C8.1899995803833,16.950000762939453 12.270000457763672,21.6299991607666 17.600000381469727,22.440000534057617 C17.600000381469727,22.440000534057617 7.960000038146973,22.440000534057617 7.960000038146973,22.440000534057617 C7.960000038146973,22.440000534057617 7.71999979019165,22.440000534057617 7.71999979019165,22.440000534057617 C3.4600000381469727,22.440000534057617 0,27.200000762939453 0,32.11000061035156 C0,32.11000061035156 0,47.13999938964844 0,47.13999938964844 C0,47.13999938964844 38.06999969482422,47.13999938964844 38.06999969482422,47.13999938964844 C38.06999969482422,47.13999938964844 38.06999969482422,33 38.06999969482422,33 C38.06999969482422,33 38.06999969482422,33 38.06999969482422,33z"></path></g><g transform="matrix(1,0,0,1,70.02000427246094,60.459999084472656)" opacity="1" style="display: block;"><path fill="rgb(243,243,243)" fill-opacity="0" d=" M8.0600004196167,11.279999732971191 C8.0600004196167,16.950000762939453 12.180000305175781,21.6299991607666 17.540000915527344,22.440000534057617 C17.540000915527344,22.440000534057617 8.210000038146973,22.440000534057617 8.210000038146973,22.440000534057617 C8.210000038146973,22.440000534057617 7.579999923706055,22.440000534057617 7.579999923706055,22.440000534057617 C3.2799999713897705,22.440000534057617 0,27.200000762939453 0,32.11000061035156 C0,32.11000061035156 0,47.13999938964844 0,47.13999938964844 C0,47.13999938964844 38.06999969482422,47.13999938964844 38.06999969482422,47.13999938964844 C38.06999969482422,47.13999938964844 38.06999969482422,33.0099983215332 38.06999969482422,33.0099983215332 C38.06999969482422,25.670000076293945 35.09000015258789,22.579999923706055 30.889999389648438,22.510000228881836 C30.829999923706055,22.510000228881836 30.829999923706055,22.450000762939453 30.780000686645508,22.450000762939453 C30.780000686645508,22.450000762939453 20.829999923706055,22.450000762939453 20.829999923706055,22.450000762939453 C26.200000762939453,21.639999389648438 30.309999465942383,16.950000762939453 30.309999465942383,11.279999732971191 C30.309999465942383,5.050000190734863 25.329999923706055,0 19.18000030517578,0 C13.039999961853027,0 8.0600004196167,5.050000190734863 8.0600004196167,11.279999732971191 C8.0600004196167,11.279999732971191 8.0600004196167,11.279999732971191 8.0600004196167,11.279999732971191z"></path></g><g transform="matrix(1,0,0,1,0,111)" opacity="1" style="display: block;"><path fill="rgb(243,243,243)" fill-opacity="0" d=" M124,0 C124,0 0,0 0,0 C0,0 0,13 0,13 C0,13 124,13 124,13 C124,13 124,0 124,0 C124,0 124,0 124,0z"></path></g></g></g></svg>